<svg xmlns="http://www.w3.org/2000/svg" version="1.1" xmlns:xlink="http://www.w3.org/1999/xlink"
	xmlns:svgjs="http://svgjs.dev/svgjs" viewBox="0 0 800 800">
	<g stroke-width="1" stroke="#d4d4d4ff" fill="none">
		<rect width="25%" height="25%" x="0%" y="0%"></rect>
		<rect width="25%" height="25%" x="0%" y="25%"></rect>
		<rect width="25%" height="25%" x="0%" y="50%"></rect>
		<rect width="25%" height="25%" x="0%" y="75%"></rect>
		<rect width="25%" height="25%" x="0%" y="100%"></rect>

		<rect width="25%" height="25%" x="25%" y="0%"></rect>
		<rect width="25%" height="25%" x="25%" y="25%"></rect>
		<rect width="25%" height="25%" x="25%" y="50%"></rect>
		<rect width="25%" height="25%" x="25%" y="75%"></rect>
		<rect width="25%" height="25%" x="25%" y="100%"></rect>

		<rect width="25%" height="25%" x="50%" y="0%"></rect>
		<rect width="25%" height="25%" x="50%" y="25%"></rect>
		<rect width="25%" height="25%" x="50%" y="50%"></rect>
		<rect width="25%" height="25%" x="50%" y="75%"></rect>
		<rect width="25%" height="25%" x="50%" y="100%"></rect>

		<rect width="25%" height="25%" x="75%" y="0%"></rect>
		<rect width="25%" height="25%" x="75%" y="25%"></rect>
		<rect width="25%" height="25%" x="75%" y="50%"></rect>
		<rect width="25%" height="25%" x="75%" y="75%"></rect>
		<rect width="25%" height="25%" x="75%" y="100%"></rect>

		<rect width="25%" height="25%" x="100%" y="0%"></rect>
		<rect width="25%" height="25%" x="100%" y="25%"></rect>
		<rect width="25%" height="25%" x="100%" y="50%"></rect>
		<rect width="25%" height="25%" x="100%" y="75%"></rect>
		<rect width="25%" height="25%" x="100%" y="100%"></rect>
	</g>
</svg>
