<?xml version="1.0" standalone="no"?>
<!DOCTYPE svg PUBLIC "-//W3C//DTD SVG 20010904//EN" "http://www.w3.org/TR/2001/REC-SVG-20010904/DTD/svg10.dtd">
<!-- Created using Krita: https://krita.org -->
<svg xmlns="http://www.w3.org/2000/svg" 
    xmlns:xlink="http://www.w3.org/1999/xlink"
    xmlns:krita="http://krita.org/namespaces/svg/krita"
    xmlns:sodipodi="http://sodipodi.sourceforge.net/DTD/sodipodi-0.dtd"
    width="240pt"
    height="240pt"
    viewBox="0 0 240 240">
<defs/>
<path id="shape0" transform="matrix(1.92 0 0 1.92 48 30.599997959667)" fill="#d00000" stroke-opacity="0" stroke="#000000" stroke-width="0" stroke-linecap="square" stroke-linejoin="bevel" d="M71.399 45.477C67.8193 40.7344 65.993 37.1758 65.5063 31.2546C65.1418 26.8295 67.1811 21.7196 67.1811 21.7196C64.6535 23.2552 64.6255 23.0907 62.9569 24.3484C54.2722 30.8957 52.0031 37.4482 51.7375 38.2954C51.7193 38.3554 51.7089 38.39 51.7089 38.39L51.7375 38.2954C51.7375 38.2954 58.5253 14.0734 39.6298 2.79407C38.0617 1.85827 34.4446 0 34.4446 0C34.4446 0 43.8262 20.979 27.0291 33.4247C23.7229 21.1166 6.26884 20.9652 6.26884 20.9652C6.26884 20.9652 7.61013 25.2535 7.82564 26.2678C10.6543 39.6439 1.98445 43.8767 0.223486 56.5214C0.424381 55.0701 0.3445 55.6478 0.222293 56.5293C0.221697 56.5322 0.221101 56.5355 0.221101 56.5388C0.221399 56.5371 0.221399 56.5361 0.221697 56.5344C0.221101 56.5382 0.220803 56.5418 0.220505 56.545C-1.15387 66.4715 4.03186 74.1596 12.0009 79.347C12.3729 75.8433 13.9476 72.3677 16.136 69.4676C18.6126 66.1868 19.8764 63.725 20.2117 59.6292C20.4621 56.5679 19.0532 53.0324 19.0532 53.0324C20.7992 54.0957 20.8213 53.982 21.9751 54.8518C26.8559 58.5313 28.8073 62.2136 29.4664 63.7796C29.4884 63.7674 29.5111 63.7554 29.5349 63.7435C28.7024 60.3159 26.3557 46.9592 38.1123 39.9413C39.1964 39.295 41.6989 38.0093 41.6989 38.0093C41.6989 38.0093 35.0414 51.2878 49.6984 62.0733C49.3711 57.6592 51.2174 53.5835 54.6722 50.443C56.5491 48.7384 59.9316 47.9192 59.9316 47.9192C59.9316 47.9192 59.0025 50.8876 58.8541 51.5885C56.897 60.8439 65.4157 68.0408 63.5957 76.8077C63.2544 78.4509 62.7656 80.0457 62.0839 81.5625L62.8976 81.5625C67.2184 79.4579 71.2283 76.7209 73.9743 72.9655C80.2227 64.421 77.4146 53.4462 71.399 45.477Z" sodipodi:nodetypes="ccccccccccccccccccccccccccccccccccc"/><path id="shape1" transform="translate(67.2, 124.82940552371)" fill="#ffffff" fill-rule="evenodd" stroke="#ffffff" stroke-width="7.2" stroke-linecap="square" stroke-linejoin="bevel" d="M52.8 0L0 14.37L0 95.97L52.8 109.89L105.6 95.97L105.6 14.37Z" sodipodi:nodetypes="ccccccc"/><path id="shape2" transform="translate(119.820000001273, 143.985000645164)" fill="#0089cc" fill-rule="evenodd" stroke="#0089cc" stroke-width="0.06" stroke-linecap="square" stroke-linejoin="bevel" d="M0 14.4L52.8 0L52.8 24L0 38.43Z" sodipodi:nodetypes="ccccc"/><path id="shape3" transform="translate(67.2, 144)" fill="#0089cc" fill-rule="evenodd" stroke="#0089cc" stroke-width="0.06" stroke-linecap="square" stroke-linejoin="bevel" d="M52.8 38.43L0 24L0 0L52.8 14.49Z" sodipodi:nodetypes="ccccc"/><path id="shape4" transform="translate(67.2, 124.919991670629)" fill="#0089cc" fill-rule="evenodd" stroke="#0089cc" stroke-width="0.06" stroke-linecap="square" stroke-linejoin="bevel" d="M52.8 28.8L105.6 14.28L52.8 0L0 14.28Z" sodipodi:nodetypes="ccccc"/><path id="shape01" transform="translate(119.910000000637, 170.158834253748)" fill="#015780" fill-rule="evenodd" stroke="#0089cc" stroke-width="0.06" stroke-linecap="square" stroke-linejoin="bevel" d="M0 14.4L52.8 0L52.8 24L0 38.43Z" sodipodi:nodetypes="ccccc"/><path id="shape11" transform="translate(67.2899999993635, 170.173833608584)" fill="#015780" fill-rule="evenodd" stroke="#0089cc" stroke-width="0.06" stroke-linecap="square" stroke-linejoin="bevel" d="M52.8 38.43L0 24L0 0L52.8 14.49Z" sodipodi:nodetypes="ccccc"/><path id="shape02" transform="translate(119.910000000637, 196.2126665185)" fill="#003752" fill-rule="evenodd" stroke="#0089cc" stroke-width="0.06" stroke-linecap="square" stroke-linejoin="bevel" d="M0 14.4L52.8 0L52.8 24L0 38.43Z" sodipodi:nodetypes="ccccc"/><path id="shape12" transform="translate(67.2899999993632, 196.227665873336)" fill="#003752" fill-rule="evenodd" stroke="#0089cc" stroke-width="0.06" stroke-linecap="square" stroke-linejoin="bevel" d="M52.8 38.43L0 24L0 0L52.8 14.49Z" sodipodi:nodetypes="ccccc"/><path id="shape5" transform="translate(139.2, 148.8)" fill="#ffffff" fill-rule="evenodd" stroke="#ffffff" stroke-width="0.06" stroke-linecap="square" stroke-linejoin="bevel" d="M0 9.6L28.8 0L28.8 9.6L0 19.2Z" sodipodi:nodetypes="ccccc"/><path id="shape03" transform="translate(139.2, 177.6)" fill="#ffffff" fill-rule="evenodd" stroke="#ffffff" stroke-width="0.06" stroke-linecap="square" stroke-linejoin="bevel" d="M0 9.6L28.8 0L28.8 9.6L0 19.2Z" sodipodi:nodetypes="ccccc"/><ellipse id="shape6" transform="matrix(1 0.262499998143345 2.44921270764476e-16 1 72.0000000000002 153.6)" rx="2.4" ry="2.39999999999999" cx="2.4" cy="2.39999999999999" fill="#ffffff" fill-rule="evenodd" stroke="#ffffff" stroke-width="0.06" stroke-linecap="square" stroke-linejoin="bevel"/><ellipse id="shape04" transform="matrix(1 0.262499998143345 2.44921270764476e-16 1 86.1973351514736 157.871135721668)" rx="2.4" ry="2.39999999999999" cx="2.4" cy="2.39999999999999" fill="#ffffff" fill-rule="evenodd" stroke="#ffffff" stroke-width="0.06" stroke-linecap="square" stroke-linejoin="bevel"/><ellipse id="shape05" transform="matrix(1 0.262499998143345 2.44921270764476e-16 1 100.694669553383 162.562271308043)" rx="2.4" ry="2.39999999999999" cx="2.4" cy="2.39999999999999" fill="#ffffff" fill-rule="evenodd" stroke="#ffffff" stroke-width="0.06" stroke-linecap="square" stroke-linejoin="bevel"/><ellipse id="shape06" transform="matrix(1 0.262499998143345 2.44921270764476e-16 1 71.9320050087112 181.953406922768)" rx="2.4" ry="2.39999999999999" cx="2.4" cy="2.39999999999999" fill="#ffffff" fill-rule="evenodd" stroke="#ffffff" stroke-width="0.06" stroke-linecap="square" stroke-linejoin="bevel"/><ellipse id="shape07" transform="matrix(1 0.262499998143345 2.44921270764476e-16 1 86.384339413621 186.614542511144)" rx="2.4" ry="2.39999999999999" cx="2.4" cy="2.39999999999999" fill="#ffffff" fill-rule="evenodd" stroke="#ffffff" stroke-width="0.06" stroke-linecap="square" stroke-linejoin="bevel"/><ellipse id="shape08" transform="matrix(1 0.262499998143345 2.44921270764476e-16 1 100.829338450463 215.384542023341)" rx="2.4" ry="2.39999999999999" cx="2.4" cy="2.39999999999999" fill="#ffffff" fill-rule="evenodd" stroke="#ffffff" stroke-width="0.06" stroke-linecap="square" stroke-linejoin="bevel"/>
</svg>
