<svg xmlns="http://www.w3.org/2000/svg" fill="none" viewBox="0 0 1500 1500" id="Github-Logo-1--Streamline-Logos-Block" height="1500" width="1500">
  <desc>
    Github Logo 1 Streamline Icon: https://streamlinehq.com
  </desc>
  <path fill="#de4c36" fill-rule="evenodd" d="M312.5 62.5a250 250 0 0 0 -250 250v875a250 250 0 0 0 250 250h875a250 250 0 0 0 250 -250V312.5a250 250 0 0 0 -250 -250H312.5Zm301.125 423.3125s42.0625 -22.75 136.375 -22.75c94.375 0 136.375 22.75 136.375 22.75 88.375 -78.125 144.4375 -105 250 -136.375 40.9375 97.125 47.75 151.8125 45.4375 250 0 0 68.1875 53.125 68.1875 227.25 0 301.0625 -249.4375 386.375 -500 386.375s-500 -85.3125 -500 -386.375c0 -174.125 68.125 -227.25 68.125 -227.25 -2.25 -98.1875 4.5625 -152.875 45.5 -250 105.5625 31.375 161.625 58.1875 250 136.375Zm-227.25 409.0625c14.375 -173.75 148 -158.1875 270.4375 -143.875 32.6875 3.75 64.5625 7.5 93.1875 7.5 28.625 0 60.5 -3.75 93.1875 -7.5 122.4375 -14.375 256 -29.9375 270.4375 143.875 19.25 232.125 -199.75 229.3125 -333.125 227.5625 -10.8125 -0.125 -21 -0.25 -30.5 -0.25 -9.5 0 -19.6875 0.125 -30.4375 0.25 -133.4375 1.75 -352.5 4.5625 -333.1875 -227.5Zm261.375 34.125c0 56.4375 -30.5625 102.25 -68.1875 102.25 -37.6875 0 -68.1875 -45.8125 -68.1875 -102.25 0 -56.5 30.5 -102.3125 68.125 -102.3125 37.6875 0 68.25 45.8125 68.25 102.25Zm272.6875 102.25c37.6875 0 68.1875 -45.8125 68.1875 -102.25 0 -56.5 -30.5 -102.3125 -68.125 -102.3125 -37.6875 0 -68.25 45.8125 -68.25 102.25 0 56.5 30.5625 102.3125 68.1875 102.3125Z" clip-rule="evenodd" stroke-width="62.5"></path>
</svg>
